<?xml version="1.0" standalone="no"?>
<!DOCTYPE svg PUBLIC "-//W3C//DTD SVG 20010904//EN"
 "http://www.w3.org/TR/2001/REC-SVG-20010904/DTD/svg10.dtd">
<svg version="1.0" xmlns="http://www.w3.org/2000/svg"
 width="1024.000000pt" height="1024.000000pt" viewBox="0 0 1024.000000 1024.000000"
 preserveAspectRatio="xMidYMid meet">
<metadata>
Created by potrace 1.14, written by Peter Selinger 2001-2017
</metadata>
<g transform="translate(0.000000,1024.000000) scale(0.100000,-0.100000)"
fill="#000000" stroke="none">
<path d="M0 5120 l0 -5120 5120 0 5120 0 0 5120 0 5120 -5120 0 -5120 0 0
-5120z m5207 4353 c409 -575 640 -1048 728 -1490 36 -179 48 -335 42 -523 -8
-246 -59 -466 -258 -1113 -209 -682 -297 -1048 -348 -1457 -23 -186 -41 -410
-41 -517 l0 -73 104 0 104 0 7 77 c30 368 76 614 165 888 226 694 643 1174
1184 1364 49 17 146 43 215 58 113 24 148 27 341 27 236 1 306 -7 465 -56 172
-52 306 -130 434 -252 239 -228 372 -544 388 -916 24 -582 -258 -1015 -780
-1199 -251 -88 -517 -101 -745 -35 -130 38 -215 87 -303 174 -62 61 -85 92
-122 170 -59 122 -77 191 -84 320 -9 191 39 332 157 451 111 113 273 176 423
166 137 -9 270 -92 380 -237 l27 -35 0 55 c-1 212 -101 365 -302 464 -119 59
-189 76 -308 76 -153 0 -352 -58 -477 -139 -136 -88 -274 -265 -382 -492 -121
-253 -195 -520 -245 -885 l-6 -41 50 -5 c109 -11 200 -109 200 -218 0 -112
-91 -208 -206 -218 l-55 -5 6 -66 c55 -559 258 -929 597 -1085 40 -19 99 -41
131 -49 l58 -15 -37 40 c-20 22 -50 70 -68 107 -29 62 -31 73 -31 176 1 97 4
117 27 167 67 146 157 206 339 229 274 34 504 -126 575 -402 24 -92 22 -245
-5 -329 -100 -318 -434 -529 -804 -507 -553 33 -978 534 -1141 1347 -20 100
-56 345 -56 382 0 4 -47 8 -105 8 -104 0 -105 0 -101 -23 3 -12 8 -56 11 -97
10 -129 55 -418 92 -595 68 -327 184 -713 316 -1050 l70 -180 1 -120 c0 -95
-5 -138 -23 -205 -71 -260 -280 -561 -586 -844 l-95 -88 -103 95 c-219 204
-395 425 -492 622 -85 171 -109 262 -109 420 l1 120 70 180 c224 570 377 1205
415 1723 l4 42 -113 0 c-62 0 -113 -4 -113 -8 0 -37 -36 -282 -56 -382 -143
-715 -496 -1200 -960 -1321 -158 -41 -356 -36 -497 13 -244 83 -419 250 -487
464 -28 88 -31 239 -7 334 71 275 309 439 581 401 180 -25 267 -84 334 -229
24 -51 27 -69 27 -167 0 -102 -2 -115 -31 -175 -17 -36 -46 -83 -64 -103 -38
-43 -30 -46 61 -16 373 122 609 489 674 1047 8 70 15 130 15 133 0 4 -20 9
-45 12 -106 11 -195 111 -195 217 0 103 87 203 189 217 l41 6 -6 41 c-51 370
-126 638 -248 891 -148 304 -305 473 -517 555 -255 98 -458 94 -663 -13 -187
-97 -286 -256 -286 -457 l1 -55 21 30 c12 17 53 62 92 100 132 129 272 170
444 130 155 -37 307 -154 370 -286 50 -104 65 -186 59 -314 -7 -133 -24 -201
-83 -323 -93 -193 -261 -316 -502 -368 -97 -21 -339 -24 -437 -5 -663 126
-1035 586 -1012 1251 8 225 52 409 140 585 173 348 454 563 824 630 127 23
377 30 514 15 657 -71 1176 -507 1472 -1236 136 -332 205 -646 242 -1097 l7
-77 114 0 114 0 0 73 c0 173 -32 495 -76 752 -55 328 -133 630 -324 1255 -195
639 -239 832 -247 1086 -17 509 129 987 478 1567 115 190 353 537 369 537 4 0
39 -44 77 -97z"/>
</g>
</svg>
